<svg width="640" height="360" viewBox="0 0 640 360" fill="none" xmlns="http://www.w3.org/2000/svg">
<rect width="640" height="360" rx="32" fill="url(#bg)"/>
<circle cx="510" cy="86" r="72" fill="url(#glow)" opacity=".45"/>
<rect x="96" y="92" width="448" height="176" rx="28" fill="#0F172A" opacity=".92"/>
<rect x="136" y="124" width="214" height="112" rx="20" fill="#E2E8F0"/>
<rect x="378" y="124" width="122" height="112" rx="20" fill="#1E293B"/>
<rect x="398" y="146" width="82" height="12" rx="6" fill="#A855F7"/>
<rect x="398" y="172" width="64" height="10" rx="5" fill="#94A3B8"/>
<rect x="398" y="196" width="48" height="10" rx="5" fill="#94A3B8"/>
<path d="M182 236L182 282" stroke="#CBD5E1" stroke-width="12" stroke-linecap="round"/>
<path d="M298 236L298 282" stroke="#CBD5E1" stroke-width="12" stroke-linecap="round"/>
<path d="M150 282H330" stroke="#CBD5E1" stroke-width="16" stroke-linecap="round"/>
<path d="M166 144H320" stroke="#C084FC" stroke-width="10" stroke-linecap="round"/>
<path d="M166 168H292" stroke="#64748B" stroke-width="10" stroke-linecap="round"/>
<path d="M166 192H250" stroke="#64748B" stroke-width="10" stroke-linecap="round"/>
<defs>
<linearGradient id="bg" x1="38" y1="32" x2="592" y2="334" gradientUnits="userSpaceOnUse">
<stop stop-color="#0F172A"/>
<stop offset=".55" stop-color="#1D4ED8"/>
<stop offset="1" stop-color="#7C3AED"/>
</linearGradient>
<radialGradient id="glow" cx="0" cy="0" r="1" gradientUnits="userSpaceOnUse" gradientTransform="translate(510 86) rotate(90) scale(72)">
<stop stop-color="#F472B6"/>
<stop offset="1" stop-color="#F472B6" stop-opacity="0"/>
</radialGradient>
</defs>
</svg>
